<svg height="512pt" viewBox="0 0 512 512.001" width="512pt" xmlns="http://www.w3.org/2000/svg"><path d="M444.988 221.61a10.08 10.08 0 00-7.07 2.93c-1.86 1.858-2.93 4.44-2.93 7.07s1.07 5.21 2.93 7.07a10.08 10.08 0 007.07 2.93c2.63 0 5.211-1.07 7.07-2.93 1.86-1.86 2.93-4.442 2.93-7.07s-1.07-5.212-2.93-7.07a10.08 10.08 0 00-7.07-2.93zM266.813 104v86.195c0 5.524 4.48 10 10 10h86.195c5.52 0 10-4.476 10-10 0-53.043-43.153-96.195-96.195-96.195-5.52 0-10 4.477-10 10zm20 10.652c34.03 4.48 61.058 31.512 65.542 65.543h-65.543zm0 0"/><path d="M509.07 336.79l-81.062-81.06c-5.551-5.55-12.93-8.609-20.778-8.609-7.847 0-15.23 3.059-20.777 8.606a29.354 29.354 0 00-6.582 10.03c-10.594-4.241-23.176-2.081-31.742 6.485-5.102 5.102-8.09 11.754-8.54 18.895-6.878.441-13.628 3.277-18.874 8.523a29.178 29.178 0 00-5.543 7.73l-12.168-12.167c19.144-18.133 29.984-43.153 29.984-69.79 0-5.519-4.476-10-10-10h-76.195v-76.19c0-5.524-4.477-10-10-10-53.04 0-96.191 43.152-96.191 96.19 0 53.044 43.152 96.196 96.191 96.196 3.023 0 6.062-.145 9.074-.426l24.68 24.68H159.668c-5.523 0-10 4.48-10 10v48c0 5.523 4.477 10 10 10h106.516c-.168 9.312 4.043 18.3 11.41 24.113H77.008v-10.281l46.742-54.168a28.805 28.805 0 004.969-29.563c-3.418-8.59-10.508-14.875-19.446-17.246-8.937-2.367-18.207-.418-25.433 5.356l-6.832 5.457V74h20v62c0 5.523 4.476 10 10 10 5.523 0 10-4.477 10-10V74h317.984v119.504c0 5.523 4.477 10 10 10 5.52 0 10-4.477 10-10V42c0-23.16-18.844-42-42-42H99.008c-23.16 0-42 18.84-42 42v200.863a9.89 9.89 0 00-.883.973l-38.688 49.437C6.191 307.641 0 325.598 0 343.843v158.153c0 5.524 4.477 10 10 10s10-4.476 10-10V343.844c0-13.797 4.684-27.383 13.188-38.246l23.82-30.438v83.176c0 5.523 4.476 10 10 10a9.955 9.955 0 006.238-2.191c0 .003.004.003.004.003l23.07-18.425a8.805 8.805 0 017.828-1.649 8.812 8.812 0 015.989 5.309 8.868 8.868 0 01-1.532 9.101l-49.168 56.98c0 .005.004.005.004.009A9.957 9.957 0 0057.008 424v46c0 23.156 18.84 42 42 42h313.98a41.686 41.686 0 0017.657-3.887c4.402 1.242 8.82 2.45 13.257 3.578a10.19 10.19 0 002.473.309c4.465 0 8.535-3.012 9.684-7.535 1.363-5.356-1.872-10.797-7.227-12.156a500.428 500.428 0 01-124.797-50.422l-32.87-18.774c-3.849-2.195-5.79-6.73-4.72-11.031 1.313-5.289 6.692-8.543 11.989-7.262l43.722 10.61c4.352 1.058 8.883-.914 11.078-4.82s1.52-8.801-1.648-11.97l-100.05-100.054a9.315 9.315 0 01-2.75-6.637c0-2.508.976-4.863 2.75-6.636 3.66-3.66 9.616-3.66 13.273 0l55.886 55.886c.008.004.012.012.02.02l33.219 33.219c3.906 3.902 10.238 3.902 14.144 0 3.902-3.907 3.902-10.239 0-14.145l-33.234-33.234c-3.645-3.66-3.64-9.606.011-13.258 3.66-3.66 9.618-3.66 13.278 0l33.219 33.219a9.996 9.996 0 0014.14 0c3.906-3.903 3.906-10.235 0-14.141l-28.308-28.313c-.004 0-.004-.003-.008-.007l-4.903-4.903a9.332 9.332 0 01-2.75-6.636c0-2.508.98-4.864 2.75-6.637 3.66-3.66 9.618-3.66 13.278 0l19.683 19.683c0 .004.004.004.004.008l13.532 13.531c3.906 3.903 10.234 3.903 14.14 0 3.906-3.906 3.906-10.238 0-14.144l-22.316-22.316a9.335 9.335 0 01-2.746-6.637c0-2.508.976-4.863 2.75-6.637a9.315 9.315 0 016.636-2.75 9.33 9.33 0 016.637 2.75l81.059 81.059c1.953 1.953 4.511 2.93 7.07 2.93s5.121-.977 7.074-2.93c3.899-3.903 3.899-10.235-.004-14.14zM99.008 20h313.984c12.13 0 22 9.867 22 22v12H77.008V42c0-12.133 9.87-22 22-22zm127.789 181.293l-36.309-36.305c10.344-7.945 22.766-13.312 36.309-15.093zM382.676 492H99.008c-12.13 0-22-9.871-22-22v-12.004h233.148c.524 0 1.031-.05 1.535-.129l2.43 1.387A520.243 520.243 0 00382.676 492zm-79.524-106.617c-10.75-2.61-21.601 1-28.757 8.5H169.668v-28h120.879l21.71 21.71zm-65.761-114.211c-8.145 8.144-10.493 19.918-7.055 30.164-39-3.293-69.734-36.063-69.734-75.899 0-17.41 5.882-33.46 15.746-46.304l53.28 53.281a.6.6 0 01.052.047 9.97 9.97 0 007.113 2.976h75.547c-2.285 17.461-10.535 33.508-23.5 45.622l-9.89-9.887c-11.458-11.461-30.098-11.457-41.56 0zm0 0"/><path d="M107.012 162.188c-2.64 0-5.211 1.07-7.07 2.933a10.007 10.007 0 00-2.93 7.066c0 2.633 1.058 5.211 2.93 7.07a10.056 10.056 0 007.07 2.93 10.05 10.05 0 007.066-2.93 10.076 10.076 0 002.934-7.07c0-2.628-1.07-5.207-2.934-7.066a10.058 10.058 0 00-7.066-2.934zm0 0"/></svg>