<svg xmlns="http://www.w3.org/2000/svg" width="16" height="22"><path fill-rule="evenodd" clip-rule="evenodd" fill="#11436E" d="M7.981 3.363C3.812 3.383.348 6.841.373 10.961c.024 4.257 3.448 7.688 7.66 7.677 4.154-.012 7.634-3.482 7.618-7.599-.014-4.238-3.47-7.696-7.67-7.676zm3.457 12.294c-.133-.11-.262-.199-.372-.31-1.336-1.341-2.674-2.681-3.998-4.037-.153-.158-.313-.407-.306-.608.061-1.832.157-3.642.247-5.473.004-.077.041.771.067-.229h1.042c.022 1 .052.414.062.629.056 1.363.123 2.717.155 4.081.012.516.172.921.511 1.314 1.126 1.31 2.222 2.642 3.352 3.991-.268.228-.5.421-.76.642z"/></svg>