<?xml version="1.0" encoding="utf-8"?>
<!-- Generator: Adobe Illustrator 16.0.0, SVG Export Plug-In . SVG Version: 6.00 Build 0)  -->
<!DOCTYPE svg PUBLIC "-//W3C//DTD SVG 1.1//EN" "http://www.w3.org/Graphics/SVG/1.1/DTD/svg11.dtd">
<svg version="1.1" id="Layer_1" xmlns="http://www.w3.org/2000/svg" xmlns:xlink="http://www.w3.org/1999/xlink" x="0px" y="0px"
	 width="32px" height="32px" viewBox="0 0 32 32" enable-background="new 0 0 32 32" xml:space="preserve">
<g>
	<g>
		<path fill="#04416F" d="M31.5,12.343c-0.398-1.693-1.063-3.282-1.954-4.717c-1.443,0.73-3.252,0.495-4.459-0.712
			c-1.207-1.208-1.443-3.015-0.712-4.46c-1.436-0.89-3.025-1.556-4.718-1.953C19.152,2.038,17.707,3.149,16,3.149
			c-1.707,0-3.151-1.111-3.656-2.649C10.65,0.898,9.063,1.563,7.627,2.454c0.73,1.444,0.494,3.252-0.713,4.46
			C5.706,8.121,3.899,8.356,2.454,7.626c-0.89,1.436-1.555,3.025-1.953,4.717c1.537,0.504,2.648,1.95,2.648,3.657
			c0,1.707-1.111,3.152-2.649,3.656c0.399,1.693,1.064,3.281,1.954,4.717c1.445-0.73,3.252-0.494,4.459,0.713
			c1.207,1.207,1.443,3.016,0.713,4.461c1.436,0.889,3.023,1.555,4.717,1.953c0.505-1.539,1.95-2.65,3.656-2.65
			c1.707,0,3.152,1.111,3.657,2.65c1.692-0.398,3.282-1.064,4.718-1.953c-0.731-1.445-0.495-3.254,0.712-4.461
			s3.016-1.443,4.459-0.713c0.892-1.436,1.556-3.023,1.954-4.717c-1.537-0.504-2.649-1.949-2.649-3.656
			C28.851,14.293,29.963,12.848,31.5,12.343z"/>
		<linearGradient id="SVGID_1_" gradientUnits="userSpaceOnUse" x1="17.1797" y1="19.9424" x2="7.2153" y2="2.6836">
			<stop  offset="0" style="stop-color:#2484C6"/>
			<stop  offset="0.7043" style="stop-color:#2484C6;stop-opacity:0"/>
		</linearGradient>
		<path fill="url(#SVGID_1_)" d="M25.087,6.914c-1.207-1.208-1.443-3.015-0.712-4.46c-1.436-0.89-3.025-1.556-4.718-1.953
			C19.152,2.038,17.707,3.149,16,3.149c-1.707,0-3.151-1.111-3.656-2.649C10.65,0.898,9.063,1.563,7.627,2.454
			c0.73,1.444,0.494,3.252-0.713,4.46C5.706,8.121,3.899,8.356,2.454,7.626c-0.89,1.436-1.555,3.025-1.953,4.717
			c1.537,0.504,2.648,1.95,2.648,3.657c0,1.707-1.111,3.152-2.649,3.656c0.399,1.693,1.064,3.281,1.954,4.717
			c1.445-0.73,3.252-0.494,4.459,0.713c0.165,0.166,0.312,0.344,0.44,0.529L25.616,7.353C25.43,7.225,25.252,7.079,25.087,6.914z"/>
	</g>
	<linearGradient id="SVGID_2_" gradientUnits="userSpaceOnUse" x1="7.3613" y1="20.9873" x2="24.64" y2="11.0115">
		<stop  offset="0" style="stop-color:#FFFFFF"/>
		<stop  offset="0.2634" style="stop-color:#666666"/>
		<stop  offset="0.6559" style="stop-color:#FFFFFF"/>
		<stop  offset="1" style="stop-color:#666666"/>
	</linearGradient>
	<circle fill="url(#SVGID_2_)" cx="16" cy="16" r="9.974"/>
	<circle fill="#FFFFFF" cx="16" cy="16" r="6.453"/>
	<path fill="#04416F" d="M20.697,13.875L19.101,16.8l-2.045,0.547l-1.496-1.495l0.547-2.043l2.926-1.599
		c-1.448-0.719-3.287-0.447-4.534,0.799c-1.142,1.14-1.465,2.777-0.96,4.158L8.726,21.98l2.203,2.201l4.812-4.813
		c1.38,0.504,3.017,0.18,4.158-0.959C21.145,17.162,21.418,15.323,20.697,13.875z"/>
	<linearGradient id="SVGID_3_" gradientUnits="userSpaceOnUse" x1="13.8799" y1="23.1113" x2="13.8799" y2="11.8193">
		<stop  offset="0" style="stop-color:#2484C6"/>
		<stop  offset="1" style="stop-color:#2484C6;stop-opacity:0"/>
	</linearGradient>
	<path fill="url(#SVGID_3_)" d="M15.56,15.853l0.547-2.043l2.926-1.599c-1.448-0.719-3.287-0.447-4.534,0.799
		c-1.142,1.14-1.465,2.777-0.96,4.158L8.726,21.98l1.131,1.131l6.482-6.481L15.56,15.853z"/>
	<linearGradient id="SVGID_4_" gradientUnits="userSpaceOnUse" x1="7.3613" y1="20.9873" x2="24.64" y2="11.0115">
		<stop  offset="0" style="stop-color:#FFFFFF"/>
		<stop  offset="0.2634" style="stop-color:#666666"/>
		<stop  offset="0.6559" style="stop-color:#FFFFFF"/>
		<stop  offset="1" style="stop-color:#666666"/>
	</linearGradient>
	<path fill="url(#SVGID_4_)" d="M16,6.026c-5.508,0-9.974,4.465-9.974,9.974c0,5.508,4.466,9.975,9.974,9.975
		c5.509,0,9.975-4.467,9.975-9.975C25.975,10.491,21.509,6.026,16,6.026z M16,22.453c-3.564,0-6.453-2.889-6.453-6.453
		c0-3.564,2.889-6.453,6.453-6.453c3.563,0,6.453,2.889,6.453,6.453C22.453,19.564,19.563,22.453,16,22.453z"/>
</g>
</svg>
