<?xml version="1.0" standalone="no"?>
<!DOCTYPE svg PUBLIC "-//W3C//DTD SVG 20010904//EN"
 "http://www.w3.org/TR/2001/REC-SVG-20010904/DTD/svg10.dtd">
<svg version="1.0" xmlns="http://www.w3.org/2000/svg"
 width="1946.000000pt" height="1946.000000pt" viewBox="0 0 1946.000000 1946.000000"
 preserveAspectRatio="xMidYMid meet">
<metadata>
Created by potrace 1.11, written by Peter Selinger 2001-2013
</metadata>
<g transform="translate(0.000000,1946.000000) scale(0.100000,-0.100000)"
fill="#000000" stroke="none">
<path d="M1030 11214 c-108 -36 -330 -141 -330 -156 0 -5 7 -25 15 -44 39 -93
22 -232 -39 -328 -42 -65 -84 -101 -163 -138 -94 -44 -179 -45 -313 -2 -11 4
-29 -23 -67 -98 -28 -57 -58 -119 -67 -138 -14 -34 -66 -199 -66 -212 0 -4 28
-22 61 -39 122 -66 190 -182 192 -329 1 -76 -2 -92 -30 -152 -36 -78 -105
-148 -175 -181 -44 -20 -47 -24 -43 -53 12 -82 143 -393 178 -422 9 -8 29 -5
67 7 104 35 229 15 326 -50 61 -41 128 -128 141 -182 26 -112 25 -169 -2 -248
-19 -54 -22 -51 130 -125 93 -44 178 -76 292 -109 18 -5 25 2 45 42 33 68 116
149 185 180 80 36 192 41 271 11 105 -39 172 -98 215 -190 24 -51 21 -50 112
-25 144 41 372 151 368 178 -1 8 -9 39 -18 69 -23 78 -13 175 25 255 79 166
277 253 445 196 l60 -20 17 22 c46 60 153 318 171 413 5 28 3 32 -28 43 -52
18 -128 83 -162 137 -90 140 -80 315 24 442 38 46 131 112 158 112 18 0 16 10
-21 135 -25 83 -133 317 -153 329 -6 4 -19 2 -29 -3 -11 -6 -32 -13 -48 -16
-181 -38 -349 36 -428 190 -49 96 -57 214 -22 300 12 27 13 41 5 51 -29 35
-390 185 -442 184 -7 -1 -23 -23 -35 -51 -33 -70 -102 -135 -180 -172 -59 -28
-77 -32 -152 -32 -74 1 -94 5 -150 31 -36 17 -80 43 -97 58 -38 32 -90 107
-99 141 -8 32 -17 31 -144 -11z"/>
<path d="M6878 11170 c-233 -40 -431 -222 -491 -451 -17 -65 -20 -147 -20
-449 1 -363 5 -400 63 -525 51 -110 176 -233 293 -289 130 -61 333 -71 482
-22 197 63 361 237 412 436 21 84 26 515 6 532 -14 11 -605 15 -640 4 -19 -6
-20 -16 -21 -144 0 -102 3 -141 14 -152 11 -13 40 -16 161 -15 81 1 153 0 159
-2 14 -5 9 -98 -8 -153 -15 -51 -64 -121 -106 -151 -139 -100 -347 -63 -427
75 -53 92 -57 122 -57 401 0 143 2 281 6 307 14 109 85 210 175 251 62 29 179
29 236 2 55 -27 129 -104 156 -165 12 -27 27 -50 33 -51 16 -1 214 -1 267 0
56 1 64 13 48 79 -57 232 -256 433 -475 476 -77 16 -195 18 -266 6z"/>
<path d="M3610 11156 c-6 -6 -10 -333 -10 -868 0 -807 1 -858 18 -866 9 -5
264 -8 565 -8 450 1 549 4 556 15 13 21 13 272 0 288 -9 10 -88 13 -409 13
l-398 0 0 706 c0 521 -3 709 -11 717 -15 15 -297 17 -311 3z"/>
<path d="M5493 11158 c-12 -16 -30 -61 -89 -226 -25 -70 -49 -136 -54 -147 -5
-11 -81 -220 -170 -465 -191 -525 -287 -786 -300 -818 -14 -32 -12 -68 3 -79
14 -11 296 -11 313 0 6 3 39 87 74 186 l62 180 261 3 c144 2 276 2 292 0 30
-3 32 -5 90 -177 32 -96 62 -180 66 -187 6 -9 51 -13 159 -13 124 -1 153 2
165 15 17 18 21 4 -195 595 -50 138 -148 405 -217 595 -184 509 -194 534 -207
542 -20 14 -243 9 -253 -4z m302 -1018 c8 -25 15 -45 15 -45 0 0 -83 0 -185 0
-102 0 -185 2 -185 5 0 3 41 128 91 279 l92 274 79 -234 c43 -129 85 -254 93
-279z"/>
<path d="M7892 11154 c-14 -10 -15 -109 -15 -864 0 -753 2 -854 15 -864 18
-13 1111 -16 1124 -3 12 11 12 280 1 295 -7 9 -101 12 -408 12 l-399 0 2 207
3 208 337 0 c185 0 340 4 344 8 4 4 8 68 9 143 1 119 -1 136 -16 145 -10 5
-132 9 -271 8 -139 0 -288 0 -330 1 l-78 0 0 199 0 199 395 0 c260 0 400 4
408 11 14 11 17 284 3 298 -13 13 -1106 10 -1124 -3z"/>
<path d="M9223 11154 c-14 -10 -16 -106 -16 -862 1 -589 4 -856 11 -865 12
-14 287 -18 310 -4 9 6 12 89 12 356 l0 349 130 0 130 1 64 -132 c35 -73 112
-231 171 -352 58 -121 108 -222 111 -225 8 -7 322 -6 344 2 31 11 25 42 -31
147 -29 53 -66 123 -84 156 -18 33 -74 141 -125 240 -51 99 -97 185 -102 191
-9 13 1 22 47 44 17 8 61 45 98 82 110 108 159 236 153 398 -7 182 -118 352
-281 430 -33 16 -76 32 -94 35 -19 3 -39 9 -45 12 -19 13 -787 10 -803 -3z
m744 -299 c105 -19 166 -95 162 -202 -4 -108 -69 -190 -169 -212 -25 -5 -129
-9 -232 -9 l-188 0 0 213 c0 133 4 215 10 217 18 6 379 0 417 -7z"/>
<path d="M11304 11149 c-214 -29 -377 -167 -428 -363 -15 -59 -16 -198 -2
-261 12 -51 63 -148 103 -194 67 -78 185 -141 298 -158 17 -2 41 -6 55 -9 14
-2 78 -11 142 -19 160 -21 213 -46 250 -119 25 -50 28 -138 5 -181 -30 -58
-91 -102 -172 -124 -43 -11 -192 -16 -235 -7 -132 28 -212 60 -303 120 -30 20
-59 36 -64 36 -11 0 -118 -116 -161 -174 l-23 -31 42 -37 c79 -68 256 -155
353 -174 12 -2 46 -9 76 -15 95 -20 303 -15 398 10 199 50 327 165 376 337 18
63 18 198 1 263 -33 124 -140 262 -245 313 -65 31 -152 54 -235 63 -114 12
-225 34 -267 53 -181 82 -156 321 39 378 120 35 282 7 445 -77 31 -16 64 -29
72 -29 20 0 157 204 150 223 -14 37 -293 156 -404 172 -67 10 -208 12 -266 4z"/>
<path d="M17508 11155 c-2 -2 -22 -5 -45 -8 -109 -15 -221 -76 -315 -170 -74
-73 -114 -138 -145 -232 -26 -79 -26 -84 -29 -400 -2 -354 5 -453 40 -543 68
-172 223 -312 396 -358 79 -20 243 -23 320 -5 179 42 327 159 400 313 38 81
63 165 54 179 -2 4 -67 7 -145 7 l-140 -1 -36 -56 c-68 -106 -137 -155 -241
-169 -176 -24 -330 97 -358 283 -9 61 -9 515 0 578 19 135 91 231 210 281 55
23 189 16 244 -12 53 -28 119 -97 152 -160 l25 -47 148 -3 148 -3 -7 28 c-17
80 -50 158 -90 218 -126 187 -277 273 -491 280 -51 1 -93 1 -95 0z"/>
<path d="M12299 11134 c-5 -7 -8 -350 -7 -850 l3 -839 545 0 545 0 0 130 0
130 -400 0 c-314 0 -401 3 -405 13 -3 7 -5 110 -5 230 l0 217 330 2 c182 1
338 2 348 2 15 1 17 14 17 126 0 93 -3 125 -12 126 -7 1 -164 2 -348 3 l-335
1 0 223 c0 192 2 222 15 222 8 0 191 1 405 3 l390 2 3 124 c1 74 -1 128 -7
134 -15 15 -1070 16 -1082 1z"/>
<path d="M13633 11135 c-11 -8 -13 -152 -11 -850 l3 -840 134 -3 c77 -1 137 1
140 7 4 5 6 165 6 355 l0 346 151 0 151 0 33 -72 c19 -40 96 -200 172 -355
l137 -283 159 0 c87 0 162 3 165 6 6 6 -124 266 -213 429 -63 116 -161 307
-158 309 2 2 27 16 56 31 101 55 186 154 223 264 27 77 31 104 31 191 -1 117
-51 233 -143 331 -66 69 -177 121 -291 135 -88 11 -729 10 -745 -1z m753 -263
c99 -29 154 -101 155 -208 1 -72 -23 -135 -70 -183 -51 -53 -99 -68 -214 -70
-341 -7 -347 -7 -348 9 -3 36 -5 446 -2 455 5 15 426 12 479 -3z"/>
<path d="M14920 11142 c-6 -2 -10 -10 -10 -19 0 -8 67 -218 150 -466 82 -249
177 -537 211 -642 33 -104 65 -199 69 -210 5 -11 34 -98 65 -193 l57 -173 111
3 111 3 277 840 c167 502 275 843 269 850 -11 13 -267 12 -280 -1 -6 -6 -82
-251 -170 -544 -89 -294 -165 -548 -170 -565 -6 -16 -16 -50 -24 -74 -14 -47
-18 -46 -34 9 -5 19 -35 118 -65 220 -107 358 -249 836 -264 890 -9 30 -20 59
-24 64 -7 8 -257 15 -279 8z"/>
<path d="M16433 11142 c-16 -2 -23 -10 -24 -25 0 -29 0 -1602 0 -1645 l1 -33
138 3 137 3 3 839 c1 526 -1 843 -7 849 -9 9 -199 16 -248 9z"/>
<path d="M18362 11135 c-4 -5 -7 -387 -7 -848 0 -831 0 -838 20 -843 11 -2
259 -3 550 -2 l530 3 1 122 c1 81 -2 126 -10 132 -6 6 -171 9 -409 8 l-397 -2
0 232 0 231 339 0 c186 0 343 2 349 6 14 9 13 233 -1 244 -7 5 -164 8 -349 8
l-338 -1 0 222 0 223 108 0 c59 1 236 1 395 1 158 0 293 2 301 5 17 6 19 251
3 261 -18 11 -1078 9 -1085 -2z"/>
<path d="M9655 9020 c-3 -4 21 -28 53 -53 85 -66 106 -66 192 3 34 28 61 51
59 51 -25 9 -73 1 -109 -17 l-45 -22 -40 21 c-40 20 -102 30 -110 17z"/>
<path d="M3773 8889 c-137 -26 -187 -190 -90 -296 22 -25 89 -49 157 -57 62
-6 79 -14 94 -45 14 -30 14 -39 1 -63 -30 -51 -131 -57 -221 -13 l-53 26 -30
-33 c-17 -18 -31 -36 -31 -39 0 -13 79 -58 126 -72 74 -22 181 -16 232 13 133
75 112 269 -34 314 -27 8 -70 18 -96 21 -26 3 -57 14 -69 24 -31 25 -30 78 0
103 31 24 113 24 170 -2 24 -11 45 -20 47 -20 2 0 15 17 28 37 31 45 25 54
-50 83 -65 24 -123 30 -181 19z"/>
<path d="M5935 8890 c-80 -18 -130 -71 -141 -149 -11 -76 35 -159 101 -181 33
-11 46 -14 118 -24 52 -8 76 -22 87 -52 34 -87 -105 -131 -222 -70 l-51 27
-33 -32 c-18 -17 -30 -38 -27 -45 3 -8 35 -28 71 -46 58 -29 75 -33 151 -33
73 0 93 4 130 25 99 55 118 184 40 272 -24 26 -101 58 -142 58 -51 0 -97 21
-112 50 -14 27 -14 33 -1 59 9 16 23 31 31 35 33 12 111 5 154 -14 24 -11 45
-20 47 -20 5 0 54 73 54 81 0 3 -26 18 -57 32 -61 27 -147 39 -198 27z"/>
<path d="M7697 8886 c-51 -15 -103 -58 -129 -109 -19 -38 -21 -57 -21 -192 0
-137 2 -153 23 -190 44 -78 98 -108 195 -109 60 0 76 4 112 27 24 15 55 46 70
68 25 39 28 50 31 168 5 163 -7 224 -54 274 -20 20 -49 44 -65 53 -38 19 -113
24 -162 10z m122 -111 c44 -22 56 -65 56 -195 -1 -95 -4 -120 -19 -143 -50
-75 -159 -67 -192 13 -17 40 -20 232 -5 273 23 59 99 84 160 52z"/>
<path d="M9241 8885 c-16 -22 -212 -555 -215 -584 -1 -13 12 -15 83 -12 15 1
25 17 41 66 l22 65 107 0 108 0 16 -42 c8 -24 18 -53 22 -65 3 -13 14 -23 23
-24 9 0 30 -2 45 -3 15 -1 32 1 37 4 5 3 -36 129 -92 280 -55 151 -102 285
-105 297 -4 16 -14 22 -45 25 -21 2 -43 -1 -47 -7z m109 -363 c0 -9 -19 -12
-70 -11 -38 1 -70 6 -70 11 0 5 12 44 26 86 49 142 41 139 80 27 18 -55 34
-106 34 -113z"/>
<path d="M9588 8875 c-2 -11 -1 -31 2 -45 l5 -25 122 0 c105 0 120 -2 113 -15
-5 -8 -64 -106 -133 -217 -107 -174 -124 -208 -123 -240 l2 -38 197 -2 197 -1
-2 46 -3 47 -128 0 c-78 0 -127 4 -127 10 0 6 34 63 75 128 41 66 75 121 75
123 0 2 23 39 51 84 48 75 75 158 53 161 -5 1 -91 2 -191 3 -175 2 -182 1
-185 -19z"/>
<path d="M10238 8893 c-36 -4 -37 -6 -61 -76 -14 -40 -62 -172 -107 -295 -45
-123 -81 -225 -79 -227 6 -5 39 -7 75 -6 32 1 35 5 50 66 1 6 7 22 13 38 l11
27 108 0 108 0 22 -67 22 -68 42 2 c24 1 46 2 51 2 4 1 7 6 7 12 0 9 -133 382
-167 469 -3 8 -7 20 -9 25 -4 18 -43 105 -46 103 -2 -1 -20 -3 -40 -5z m44
-258 c14 -44 29 -90 32 -102 7 -21 4 -22 -69 -21 -52 0 -74 4 -71 12 2 6 19
55 37 109 17 54 35 95 39 90 4 -4 18 -44 32 -88z"/>
<path d="M12787 8885 c-111 -28 -163 -148 -109 -250 33 -63 80 -86 194 -99 58
-7 87 -23 95 -54 15 -59 -47 -105 -130 -97 -48 5 -112 29 -122 45 -12 19 -34
10 -61 -25 -25 -34 -26 -36 -10 -54 47 -51 189 -81 289 -60 55 12 108 53 127
99 20 48 8 132 -24 174 -32 42 -65 62 -121 70 -22 4 -57 9 -77 12 -53 9 -82
43 -74 87 5 26 14 38 36 47 38 16 113 9 163 -15 21 -10 39 -16 41 -14 24 32
46 69 46 78 0 10 -60 41 -107 55 -41 13 -108 13 -156 1z"/>
<path d="M14831 8885 c-79 -24 -121 -84 -121 -172 0 -51 24 -101 63 -134 20
-17 70 -31 157 -44 50 -8 80 -25 86 -51 9 -35 1 -55 -29 -78 -49 -36 -159 -23
-229 27 -15 10 -22 7 -48 -21 -35 -39 -36 -44 -12 -65 61 -55 219 -81 306 -51
101 36 144 136 102 235 -29 69 -85 100 -200 113 -68 7 -101 40 -92 88 4 24 14
39 32 46 38 18 110 14 156 -8 23 -11 44 -20 47 -20 13 0 53 71 48 84 -8 20
-111 56 -171 60 -28 2 -71 -2 -95 -9z"/>
<path d="M16556 8889 c-50 -14 -107 -61 -131 -108 -20 -41 -23 -61 -23 -181
-1 -161 9 -201 63 -256 84 -84 223 -83 309 3 49 48 59 85 60 231 2 184 -15
230 -107 288 -40 26 -120 37 -171 23z m134 -124 c34 -31 42 -69 38 -194 -3
-119 -3 -121 -34 -151 -51 -51 -125 -45 -166 13 -20 28 -23 45 -24 144 -2 150
18 194 96 216 21 6 69 -9 90 -28z"/>
<path d="M4139 8863 c0 -16 -1 -151 -2 -301 l-2 -272 35 -1 c19 0 107 -1 195
-1 l160 0 3 46 c4 53 22 48 -165 48 l-123 1 0 81 0 81 123 0 122 0 0 46 1 47
-123 -2 -123 -1 0 78 0 77 108 1 c59 1 123 0 143 -1 l35 -1 3 50 2 51 -196 0
-195 0 -1 -27z"/>
<path d="M4609 8838 c-3 -180 0 -538 4 -545 4 -7 21 -8 85 -4 9 1 12 33 12
126 l0 125 53 0 52 0 55 -117 c30 -64 60 -121 66 -127 6 -6 35 -10 67 -8 55 4
56 4 43 25 -7 12 -38 70 -69 129 l-55 107 34 23 c66 44 94 151 58 220 -43 83
-83 98 -264 98 l-140 0 -1 -52z m306 -70 c19 -22 22 -33 15 -62 -13 -60 -32
-71 -132 -74 l-88 -4 0 87 0 87 91 -4 c84 -3 92 -5 114 -30z"/>
<path d="M5075 8848 c7 -24 49 -154 94 -289 45 -135 81 -251 81 -258 0 -8 15
-11 45 -9 l46 3 98 295 98 295 -50 3 c-29 2 -53 -1 -57 -8 -4 -6 -33 -101 -66
-211 -32 -109 -62 -199 -65 -199 -4 0 -19 44 -34 98 -15 53 -33 115 -40 137
-7 22 -23 73 -35 113 l-21 72 -53 0 -54 0 13 -42z"/>
<path d="M5595 8590 c0 -331 -6 -302 60 -302 14 0 28 0 33 1 4 1 7 136 7 301
l0 300 -50 0 -50 0 0 -300z"/>
<path d="M6500 8590 l0 -300 28 -1 c33 -2 66 2 71 7 3 3 5 490 2 572 -1 20 -6
22 -51 22 l-50 0 0 -300z"/>
<path d="M6929 8878 c-1 -7 -2 -141 -3 -298 -1 -274 -1 -285 18 -290 11 -3 34
-4 51 -2 l31 4 -1 164 c-1 90 2 161 6 157 4 -5 30 -60 58 -123 l50 -115 43 -3
43 -3 55 128 55 128 3 -168 c2 -123 6 -167 15 -168 32 -3 83 4 87 11 4 6 5
536 1 580 -1 6 -22 10 -48 10 l-48 0 -54 -128 c-30 -70 -67 -153 -81 -185
l-27 -59 -80 184 -80 183 -47 3 c-32 2 -46 -1 -47 -10z"/>
<path d="M8080 8591 c0 -333 -5 -313 69 -301 l35 5 -1 197 c-1 225 -7 219 83
73 55 -89 145 -230 166 -258 11 -16 47 -23 94 -18 7 1 11 95 11 301 l1 300
-52 0 -51 0 0 -200 c0 -110 0 -200 -1 -200 -1 0 -59 90 -129 200 l-128 200
-49 0 -48 0 0 -299z"/>
<path d="M8598 8873 c-2 -10 -2 -30 0 -45 4 -28 5 -28 83 -28 l79 0 0 -255 c0
-197 3 -255 13 -256 63 -4 80 -3 84 5 3 5 6 120 6 255 l-1 246 82 5 81 5 0 40
0 40 -212 3 c-196 2 -212 1 -215 -15z"/>
<path d="M10811 8591 l0 -299 49 -4 c39 -2 50 0 51 12 4 43 5 567 1 578 -3 7
-23 12 -52 12 l-49 0 0 -299z"/>
<path d="M11031 8590 c-1 -334 -8 -302 64 -302 14 0 29 0 33 1 4 1 7 87 7 192
0 105 2 192 5 194 4 2 15 -10 25 -28 10 -18 42 -68 70 -112 29 -44 77 -118
107 -165 l55 -85 46 3 47 4 0 299 0 299 -50 0 c-50 0 -50 0 -51 -32 0 -18 0
-108 -1 -200 0 -93 -1 -168 -3 -168 -2 0 -140 215 -229 358 -25 40 -28 42 -75
42 l-50 0 0 -300z"/>
<path d="M11610 8590 c0 -279 1 -300 18 -301 9 0 70 0 136 0 146 1 188 18 242
96 30 43 37 84 36 217 -1 131 -16 183 -68 232 -51 48 -85 56 -230 56 l-134 0
0 -300z m297 165 c28 -31 36 -91 31 -211 -4 -90 -6 -96 -35 -125 -28 -28 -37
-31 -110 -35 l-80 -3 0 204 0 204 41 3 c69 5 129 -9 153 -37z"/>
<path d="M12137 8883 c-2 -5 -3 -107 -2 -228 1 -190 4 -225 19 -258 64 -133
271 -155 367 -38 16 20 33 50 38 67 5 17 9 129 9 248 l1 217 -52 -3 -52 -3 0
-210 c-1 -216 -4 -233 -44 -269 -25 -22 -93 -26 -129 -7 -52 28 -56 48 -58
270 -1 113 -2 209 -3 214 0 4 -21 7 -45 7 -25 0 -47 -3 -49 -7z"/>
<path d="M13100 8845 l0 -45 80 0 c57 0 80 -4 81 -12 0 -7 1 -122 1 -255 l0
-241 27 -4 c14 -1 37 -2 51 0 l25 3 0 252 0 252 81 3 81 3 1 44 2 45 -215 0
-215 0 0 -45z"/>
<path d="M13588 8883 c-4 -7 -3 -540 1 -583 1 -12 12 -14 50 -12 l49 4 0 86
c0 48 1 104 1 125 l1 37 50 0 51 0 60 -122 c42 -87 66 -124 81 -128 35 -9 98
1 98 15 0 7 -3 15 -7 17 -5 2 -34 53 -65 115 l-58 112 28 16 c40 24 72 79 79
135 7 62 -22 125 -74 160 -34 24 -45 25 -189 28 -83 2 -154 0 -156 -5z m301
-107 c14 -13 21 -31 21 -55 -1 -68 -38 -91 -144 -91 -85 0 -78 -8 -78 85 0 19
1 47 1 61 l1 26 89 -4 c70 -2 93 -7 110 -22z"/>
<path d="M14103 8590 c0 -212 3 -300 11 -301 30 -3 82 4 86 11 4 6 5 517 1
578 -1 8 -18 12 -50 12 l-48 0 0 -300z"/>
<path d="M14517 8883 c-3 -5 -5 -104 -6 -221 0 -133 -5 -221 -12 -233 -17 -33
-74 -52 -115 -39 -19 6 -34 16 -34 21 0 17 -26 9 -60 -20 -39 -32 -36 -44 26
-82 95 -58 245 -11 286 91 10 24 19 452 10 478 -4 13 -88 17 -95 5z"/>
<path d="M15219 8883 c-1 -5 -2 -138 -3 -298 -2 -319 -5 -303 63 -297 l38 4
-2 86 -1 87 49 52 50 53 41 -73 c22 -40 47 -83 53 -97 31 -63 60 -103 78 -109
11 -4 39 -4 62 -1 l41 5 -104 178 -104 178 87 107 c48 59 91 113 96 120 7 9
-4 12 -51 12 l-60 0 -117 -145 c-64 -80 -118 -145 -119 -145 0 0 -1 60 0 133
0 72 -2 138 -4 145 -4 13 -91 18 -93 5z"/>
<path d="M15750 8878 c-1 -7 -2 -142 -3 -301 l-2 -287 25 -1 c31 -1 269 -1
328 0 l42 1 0 45 c0 36 -4 45 -17 46 -10 0 -76 1 -146 2 l-128 0 3 81 3 81
113 1 c61 1 116 2 121 3 4 0 8 20 7 44 l-2 42 -89 2 c-50 1 -105 2 -122 2
l-33 1 0 75 0 75 83 1 c45 0 109 1 142 2 l59 2 3 48 2 47 -194 0 c-149 0 -195
-3 -195 -12z"/>
<path d="M16939 8888 c-1 -2 -2 -137 -3 -300 -2 -329 -6 -306 65 -300 l37 4 0
101 c0 56 0 107 1 113 1 7 33 11 86 12 100 1 142 12 178 50 83 87 72 225 -24
289 -41 27 -47 28 -191 31 -81 2 -149 2 -149 0z m294 -119 c36 -37 27 -118
-16 -141 -20 -10 -149 -19 -172 -11 -6 2 -9 38 -9 86 l2 82 48 5 c64 7 128 -3
147 -21z"/>
<path d="M17439 8888 c0 -2 -1 -137 -2 -300 l-2 -296 25 -4 c14 -2 37 -2 53 0
l27 3 0 125 0 124 53 0 52 0 59 -125 c38 -79 65 -125 75 -126 39 -3 93 0 98 4
2 3 -25 62 -60 131 l-66 126 28 16 c109 65 104 245 -9 302 -40 20 -59 22 -187
22 -79 0 -143 -1 -144 -2z m297 -112 c26 -23 32 -48 21 -88 -11 -41 -53 -58
-142 -58 l-75 0 0 86 0 85 86 -2 c72 -1 90 -5 110 -23z"/>
<path d="M17953 8589 l2 -302 170 1 c94 0 181 1 195 1 23 1 26 6 27 41 1 22
-3 43 -9 46 -6 4 -71 7 -144 7 -151 0 -141 -7 -139 97 l0 65 115 0 c63 0 120
3 125 7 6 4 10 19 9 35 -1 15 -3 33 -3 40 -1 8 -34 11 -108 11 -60 0 -115 0
-123 1 -12 1 -15 17 -16 76 l0 75 80 1 c45 0 109 0 143 0 67 0 70 3 68 59 l-1
35 -196 3 -197 2 2 -301z"/>
<path d="M18429 8888 c-1 -2 -2 -136 -3 -298 l-1 -295 25 -5 c14 -3 37 -4 52
-2 l27 4 0 87 c0 47 0 122 1 166 l0 80 56 -126 55 -126 43 -1 c43 -2 44 -2 65
50 12 29 37 86 54 125 l32 73 3 -165 c2 -121 6 -165 15 -166 37 -3 79 -1 84 4
4 5 7 428 4 570 -1 26 -3 27 -48 27 l-48 0 -39 -93 c-111 -262 -120 -280 -131
-255 -5 13 -42 95 -81 183 l-72 160 -46 3 c-25 2 -47 2 -47 0z"/>
<path d="M19065 8590 c0 -165 3 -300 7 -301 5 0 80 0 168 0 88 0 173 0 189 0
28 1 29 3 28 46 -1 52 16 47 -160 47 -84 0 -120 4 -123 12 -10 25 -9 146 1
147 6 1 55 3 110 4 55 1 107 3 116 4 12 1 16 11 15 44 l-2 42 -118 2 c-64 0
-120 3 -122 6 -7 7 -8 136 -2 142 3 3 68 6 144 8 l139 2 2 48 1 47 -196 0
-197 0 0 -300z"/>
</g>
</svg>
