<?xml version="1.0" encoding="utf-8"?>
<!-- Generator: Adobe Illustrator 16.0.0, SVG Export Plug-In . SVG Version: 6.00 Build 0)  -->
<!DOCTYPE svg PUBLIC "-//W3C//DTD SVG 1.1//EN" "http://www.w3.org/Graphics/SVG/1.1/DTD/svg11.dtd">
<svg version="1.1" xmlns="http://www.w3.org/2000/svg" xmlns:xlink="http://www.w3.org/1999/xlink" x="0px" y="0px" width="32px"
	 height="32px" viewBox="0 0 32 32" enable-background="new 0 0 32 32" xml:space="preserve">
<g id="Layer_1">
</g>
<g id="Layer_2">
	<g>
		<path fill-rule="evenodd" clip-rule="evenodd" fill="#FFFFFF" d="M24.955-0.012H7.047C3.163-0.012,0,3.171,0,7.039v17.91
			c0,3.884,3.163,7.063,7.048,7.063h17.908c3.873,0,7.045-3.179,7.045-7.063V7.039C32,3.171,28.828-0.012,24.955-0.012z
			 M20.381,14.71l-0.133,1.517H17.4c0,4.306,0,9.623,0,9.623h-3.854c0,0,0-5.256,0-9.623H11.61v-1.534v-2.321h1.922v-1.738
			c0-1.579,0.74-4.03,4.044-4.03h2.98v3.3c0,0-1.818,0-2.164,0c-0.354,0-0.855,0.182-0.855,0.924v1.545h3.068L20.381,14.71z"/>
	</g>
</g>
</svg>
