<svg xmlns="http://www.w3.org/2000/svg" height="512pt" viewBox="0 0 512 512" width="512pt"><path d="M501.008 279H384.602a9.997 9.997 0 00-8.118 4.164L335 340.867l-41.484-57.703a9.997 9.997 0 00-8.118-4.164H155.805a10 10 0 00-8.899 5.438 9.986 9.986 0 00.778 10.398l47.722 66.387V502c0 5.523 4.477 10 10 10h246c5.524 0 10-4.477 10-10V361.223l47.723-66.387A9.996 9.996 0 00501.008 279zM280.27 299l35.226 49H210.531l-35.222-49zm-64.864 69H325v124H215.406zm226 124H421.5v-44.668c0-5.523-4.477-10-10-10s-10 4.477-10 10V492H345V368h96.406zm4.871-144h-91.773l35.226-49h91.774zM266.043 182c0-17.578-9.914-32.875-24.441-40.617l5.636-5.637a10.006 10.006 0 002.93-7.07V27.328a10 10 0 00-2.93-7.07L229.914 2.93a10.006 10.006 0 00-7.07-2.93h-49.348a10 10 0 00-7.07 2.93l-17.328 17.324a10.006 10.006 0 00-2.93 7.07v101.348a10 10 0 002.93 7.07l.254.258h-32.536l.254-.258a10 10 0 002.93-7.07V27.328a10 10 0 00-2.93-7.07L99.746 2.93A10.015 10.015 0 0092.672 0H43.328a10 10 0 00-7.07 2.93L18.93 20.254A10.015 10.015 0 0016 27.328v101.348c0 2.648 1.055 5.195 2.93 7.07l.254.254H10c-5.523 0-10 4.477-10 10s4.477 10 10 10h210.043c14.336 0 26 11.664 26 26s-11.664 26-26 26H10c-5.523 0-10 4.477-10 10s4.477 10 10 10h210.043c25.363 0 46-20.637 46-46zM47.469 136L36 124.531V31.47L47.469 20H88.53L100 31.469v93.062L88.531 136zm130.168 0l-11.469-11.469V31.47L177.637 20h41.062l11.469 11.469v93.062L218.699 136zm0 0" fill="#03416e"/><path d="M10 192h166.543c5.523 0 10-4.477 10-10s-4.477-10-10-10H10c-5.523 0-10 4.477-10 10s4.477 10 10 10zm215.11-2.93c1.859-1.86 2.93-4.441 2.93-7.07s-1.071-5.21-2.93-7.07a10.073 10.073 0 00-7.07-2.93 10.08 10.08 0 00-7.071 2.93c-1.86 1.86-2.93 4.441-2.93 7.07s1.07 5.21 2.93 7.07a10.08 10.08 0 007.07 2.93c2.633 0 5.211-1.07 7.07-2.93zM68 53.332c-13.602 0-24.668 11.066-24.668 24.668S54.398 102.668 68 102.668 92.668 91.602 92.668 78 81.602 53.332 68 53.332zm0 29.336c-2.574 0-4.668-2.094-4.668-4.668s2.094-4.668 4.668-4.668 4.668 2.094 4.668 4.668-2.094 4.668-4.668 4.668zm130.168-29.336C184.566 53.332 173.5 64.398 173.5 78s11.066 24.668 24.668 24.668c13.602 0 24.668-11.066 24.668-24.668s-11.066-24.668-24.668-24.668zm0 29.336c-2.574 0-4.668-2.094-4.668-4.668s2.094-4.668 4.668-4.668 4.668 2.094 4.668 4.668-2.094 4.668-4.668 4.668zM502 52.613H382.566a37.84 37.84 0 002.684-14c0-4.937-.934-9.656-2.613-14H502c5.523 0 10-4.476 10-10 0-5.523-4.477-10-10-10H365.059A37.353 37.353 0 00347.25.11c-20.953 0-38 17.274-38 38.504 0 11.348 5.008 21.54 12.918 28.508v27.04l-33.598 33.624a10 10 0 00-1.718 11.828l16.168 29.895a10.001 10.001 0 008.804 5.246c1.606 0 3.239-.39 4.75-1.207 4.86-2.629 6.664-8.695 4.04-13.555l-12.626-23.34 26.871-26.894h24.782l26.87 26.894-12.624 23.34c-2.625 4.86-.817 10.926 4.039 13.555a9.982 9.982 0 004.75 1.207 10 10 0 008.804-5.246l16.168-29.895a10 10 0 00-1.718-11.828L372.336 94.16V72.613H502c5.523 0 10-4.476 10-10 0-5.523-4.477-10-10-10zM347.25 20.11c9.758 0 18 8.473 18 18.504 0 9.926-8.074 18-18 18s-18-8.074-18-18c0-10.031 8.242-18.504 18-18.504zm-5.082 69.645V76.262a37.64 37.64 0 005.082.351c1.727 0 3.418-.125 5.082-.351v13.492zM411.5 420.672c2.629 0 5.21-1.07 7.07-2.934a10.07 10.07 0 002.93-7.066c0-2.64-1.07-5.211-2.93-7.07-1.86-1.872-4.441-2.93-7.07-2.93s-5.21 1.058-7.07 2.93a10.059 10.059 0 00-2.93 7.07 10.07 10.07 0 002.93 7.066 10.067 10.067 0 007.07 2.934zm0 0" fill="#03416e"/></svg>