<?xml version="1.0" encoding="utf-8"?>
<!-- Generator: Adobe Illustrator 16.0.0, SVG Export Plug-In . SVG Version: 6.00 Build 0)  -->
<!DOCTYPE svg PUBLIC "-//W3C//DTD SVG 1.1//EN" "http://www.w3.org/Graphics/SVG/1.1/DTD/svg11.dtd">
<svg version="1.1" id="Layer_1" xmlns="http://www.w3.org/2000/svg" xmlns:xlink="http://www.w3.org/1999/xlink" x="0px" y="0px"
	 width="32px" height="32px" viewBox="0 0 32 32" enable-background="new 0 0 32 32" xml:space="preserve">
<g>
	<path fill-rule="evenodd" clip-rule="evenodd" fill="#FFFFFF" d="M15.998,12.291c-2.046,0-3.713,1.667-3.713,3.713
		c0,2.041,1.667,3.707,3.713,3.707c2.045,0,3.713-1.666,3.713-3.707C19.711,13.958,18.043,12.291,15.998,12.291z"/>
	<path fill-rule="evenodd" clip-rule="evenodd" fill="#FFFFFF" d="M20.692,6.976h-9.39c-2.388,0-4.327,1.943-4.327,4.333v9.383
		c0,2.389,1.939,4.33,4.327,4.33h9.39c2.388,0,4.33-1.941,4.33-4.33v-9.383C25.022,8.919,23.08,6.976,20.692,6.976z M15.998,21.58
		c-3.073,0-5.58-2.502-5.58-5.576c0-3.078,2.507-5.58,5.58-5.58c3.07,0,5.577,2.502,5.577,5.58
		C21.575,19.078,19.068,21.58,15.998,21.58z M21.814,11.441c-0.737,0-1.342-0.593-1.342-1.338c0-0.738,0.604-1.336,1.342-1.336
		c0.742,0,1.342,0.598,1.342,1.336C23.156,10.848,22.557,11.441,21.814,11.441z"/>
	<path fill-rule="evenodd" clip-rule="evenodd" fill="#FFFFFF" d="M24.956-0.005H7.042C3.17-0.005,0,3.175,0,7.042v17.903
		c0,3.883,3.17,7.061,7.042,7.061h17.914c3.872,0,7.044-3.178,7.044-7.061V7.042C32,3.175,28.828-0.005,24.956-0.005z M26.89,20.691
		c0,3.416-2.782,6.207-6.197,6.207h-9.39c-3.414,0-6.194-2.791-6.194-6.207v-9.383c0-3.414,2.78-6.202,6.194-6.202h9.39
		c3.415,0,6.197,2.789,6.197,6.202V20.691z"/>
</g>
</svg>
