<svg height="512pt" viewBox="0 0 512 512" width="512pt" xmlns="http://www.w3.org/2000/svg"><path d="M437 0H75C33.645 0 0 33.645 0 75v362c0 41.355 33.645 75 75 75h362c41.355 0 75-33.645 75-75V75c0-41.355-33.645-75-75-75zm-54.297 255l-9 45H316v182h-45V300h-55v-45h55v-90c0-33.086 26.914-60 60-60h55v45h-70v105zM482 437c0 24.813-20.188 45-45 45h-91V330h52.297l21-105H346v-45h70V75h-85c-49.625 0-90 40.375-90 90v60h-55v105h55v152H75c-24.813 0-45-20.188-45-45V75c0-24.813 20.188-45 45-45h362c24.813 0 45 20.188 45 45zm0 0"/></svg>