<svg xmlns="http://www.w3.org/2000/svg" width="22" height="22"><g fill-rule="evenodd" clip-rule="evenodd" fill="#11436E"><path d="M11.024 2.655c2.829 0 5.655-.001 8.481.001 1.573 0 2.458 1.191 2.003 2.712-.302 1.008-.962 1.769-1.798 2.361-2.271 1.607-4.579 3.165-6.838 4.79-1.249.898-2.405.978-3.686.051-2.334-1.688-4.742-3.274-7.064-4.979C1.13 6.861.294 5.931.379 4.534c.074-1.211.768-1.876 1.986-1.879 2.887-.006 5.773-.002 8.658-.002a.003.003 0 01.001.002z"/><path d="M.933 19l6.187-6.201c2.531 2.533 5.158 2.602 7.694.023l6.128 6.2c-.407.106-.831.311-1.257.313-5.809.02-11.62.017-17.43-.006-.409-.002-.817-.198-1.322-.329zm15.459-7.186l5.192-3.634v8.863c-1.724-1.734-3.452-3.476-5.192-5.229zm-16 5.282V8.188l5.251 3.658-5.251 5.25z"/></g></svg>