<svg xmlns="http://www.w3.org/2000/svg" height="512pt" viewBox="0 0 512 512" width="512pt"><path d="M502 318H104V215.355l53.79 53.79a10.001 10.001 0 007.03 2.925l32.793.125 20.422 20.422a9.968 9.968 0 007.07 2.93 9.968 9.968 0 007.07-2.93c3.907-3.902 3.907-10.234 0-14.14l-20.421-20.422-.125-32.79a10.007 10.007 0 00-2.93-7.035L91.758 101.285c-.04-.039-.082-.07-.125-.11C83.23 92.16 71.266 86.513 58 86.513c-25.363 0-46 20.633-46 46v260.05C4.77 397.41 0 405.66 0 415v87c0 5.523 4.477 10 10 10h492c5.523 0 10-4.477 10-10V328c0-5.523-4.477-10-10-10zm-10 20v50H104v-50zM57.969 178.21c9.664 0 18.629-3.01 26.031-8.132V388H32V170.121a45.588 45.588 0 0025.969 8.09zm133.761 73.966l-22.71-.09-65.02-65.02v-45.254l87.645 87.649zM58 106.512c13.816 0 25.145 10.832 25.95 24.449-.063.45-.106.906-.106 1.371 0 14.27-11.606 25.879-25.875 25.879-14.266 0-25.875-11.61-25.875-25.879 0-.367-.024-.734-.063-1.094.664-13.75 12.059-24.726 25.969-24.726zM20 415c0-3.86 3.14-7 7-7h62c3.86 0 7 3.14 7 7v77H20zm96 77v-77c0-2.422-.324-4.766-.926-7H492v20.25h-81c-5.523 0-10 4.477-10 10s4.477 10 10 10h81V492zm0 0" fill="#03416e"/><path d="M261 373c2.629 0 5.21-1.07 7.07-2.93 1.86-1.86 2.93-4.441 2.93-7.07s-1.07-5.21-2.93-7.07c-1.86-1.86-4.441-2.93-7.07-2.93s-5.21 1.07-7.07 2.93c-1.86 1.86-2.93 4.441-2.93 7.07s1.07 5.21 2.93 7.07A10.08 10.08 0 00261 373zm-64 0c2.629 0 5.21-1.07 7.07-2.93 1.86-1.86 2.93-4.441 2.93-7.07s-1.07-5.21-2.93-7.07c-1.86-1.86-4.441-2.93-7.07-2.93s-5.21 1.07-7.07 2.93c-1.86 1.86-2.93 4.441-2.93 7.07s1.07 5.21 2.93 7.07A10.08 10.08 0 00197 373zm-71.07-2.93c1.86 1.86 4.441 2.93 7.07 2.93s5.21-1.07 7.07-2.93c1.86-1.86 2.93-4.441 2.93-7.07s-1.07-5.21-2.93-7.07c-1.86-1.86-4.441-2.93-7.07-2.93s-5.21 1.07-7.07 2.93c-1.86 1.86-2.93 4.441-2.93 7.07s1.07 5.21 2.93 7.07zM453 373c2.629 0 5.21-1.07 7.07-2.93 1.86-1.86 2.93-4.441 2.93-7.07s-1.07-5.21-2.93-7.07c-1.86-1.86-4.441-2.93-7.07-2.93s-5.21 1.07-7.07 2.93c-1.86 1.86-2.93 4.441-2.93 7.07s1.07 5.21 2.93 7.07A10.08 10.08 0 00453 373zm-128 0c2.629 0 5.21-1.07 7.07-2.93 1.86-1.86 2.93-4.441 2.93-7.07s-1.07-5.21-2.93-7.07c-1.86-1.86-4.441-2.93-7.07-2.93s-5.21 1.07-7.07 2.93c-1.86 1.86-2.93 4.441-2.93 7.07s1.07 5.21 2.93 7.07A10.08 10.08 0 00325 373zm64 0c2.629 0 5.21-1.07 7.07-2.93A10.08 10.08 0 00399 363c0-2.64-1.07-5.21-2.93-7.07-1.86-1.86-4.43-2.93-7.07-2.93s-5.21 1.07-7.07 2.93A10.059 10.059 0 00379 363c0 2.629 1.07 5.21 2.93 7.07A10.08 10.08 0 00389 373zM57.969 142.328a10.02 10.02 0 007.07-2.93 10.073 10.073 0 002.93-7.07 10.07 10.07 0 00-2.93-7.066 10.06 10.06 0 00-7.07-2.934c-2.63 0-5.207 1.07-7.07 2.934a10.07 10.07 0 00-2.93 7.066c0 2.64 1.07 5.211 2.93 7.07a10.037 10.037 0 007.07 2.93zM502 0H10C4.477 0 0 4.477 0 10v40c0 5.523 4.477 10 10 10h79c5.523 0 10-4.477 10-10s-4.477-10-10-10H20V20h472v20H266v-3c0-5.523-4.477-10-10-10s-10 4.477-10 10v3h-64c-5.523 0-10 4.477-10 10s4.477 10 10 10h64v44.215l-25.617 25.617a10.013 10.013 0 00-2.93 7.07v23.121a10 10 0 002.93 7.07l10.773 10.774a9.968 9.968 0 007.07 2.93 9.968 9.968 0 007.07-2.93c3.907-3.906 3.907-10.238 0-14.144l-7.843-7.844v-14.832L256 122.5l18.547 18.547v14.836l-7.563 7.562c-3.906 3.907-3.906 10.239 0 14.145 3.903 3.906 10.239 3.902 14.141 0l10.492-10.496a10 10 0 002.93-7.07v-23.118a10 10 0 00-2.93-7.07L266 104.215V60h126.242A41.744 41.744 0 00386 82c0 11.566 4.7 22.055 12.29 29.656A9.875 9.875 0 00398 114v69.035l-52.918 52.922c-9.219 9.219-11.164 22.988-5.855 34.137L323.41 285.91c-3.902 3.906-3.902 10.238 0 14.145 1.953 1.953 4.516 2.93 7.074 2.93s5.118-.977 7.07-2.93l15.801-15.805a29.897 29.897 0 0012.942 2.922c8.012 0 15.547-3.121 21.21-8.79l56.571-56.57c8.363-5.332 13.922-14.68 13.922-25.304V114c0-.809-.105-1.59-.29-2.344C465.3 104.055 470 93.566 470 82c0-8.062-2.29-15.598-6.242-22H502c5.523 0 10-4.477 10-10V10c0-5.523-4.477-10-10-10zm-64 196.508c0 3.328-1.64 6.273-4.152 8.094a9.958 9.958 0 00-1.582.933 9.892 9.892 0 01-4.266.973c-5.516 0-10-4.488-10-10v-73.719A42 42 0 00428 124a42 42 0 0010-1.21zm-64.633 67.734c-1.89 1.887-4.398 2.93-7.07 2.93s-5.18-1.04-7.067-2.926c-.003 0-.003-.004-.007-.004 0 0 0-.004-.004-.004-3.895-3.898-3.89-10.242.004-14.136l41.386-41.387a30.178 30.178 0 0013.774 14.512zM450 82c0 12.133-9.867 22-22 22s-22-9.867-22-22 9.867-22 22-22 22 9.867 22 22zm0 0" fill="#03416e"/><path d="M145.07 57.07c1.86-1.86 2.93-4.44 2.93-7.07s-1.07-5.21-2.93-7.07A10.059 10.059 0 00138 40a10.08 10.08 0 00-7.07 2.93C129.07 44.79 128 47.37 128 50s1.07 5.21 2.93 7.07c1.86 1.86 4.44 2.93 7.07 2.93s5.21-1.07 7.07-2.93zM428 92c2.629 0 5.21-1.07 7.07-2.93 1.86-1.86 2.93-4.44 2.93-7.07s-1.07-5.21-2.93-7.07C433.21 73.07 430.63 72 428 72s-5.21 1.07-7.07 2.93C419.07 76.79 418 79.37 418 82s1.07 5.21 2.93 7.07A10.08 10.08 0 00428 92zM58 423.5c-14.613 0-26.5 11.887-26.5 26.5s11.887 26.5 26.5 26.5 26.5-11.887 26.5-26.5-11.887-26.5-26.5-26.5zm0 33c-3.586 0-6.5-2.914-6.5-6.5s2.914-6.5 6.5-6.5 6.5 2.914 6.5 6.5-2.914 6.5-6.5 6.5zm313.078-28.25c-2.629 0-5.2 1.07-7.066 2.93-1.864 1.86-2.934 4.441-2.934 7.07s1.07 5.21 2.934 7.07a10.084 10.084 0 007.066 2.93c2.633 0 5.211-1.07 7.07-2.93 1.86-1.86 2.93-4.441 2.93-7.07s-1.066-5.21-2.93-7.07a10.073 10.073 0 00-7.07-2.93zm0 0" fill="#03416e"/></svg>