<svg xmlns="http://www.w3.org/2000/svg" viewBox="0 0 31.058 31.058"><path d="M15.529 31.058a.893.893 0 01-.646-.277c-.467-.497-11.452-12.214-11.452-18.683C3.431 5.427 8.858 0 15.529 0c6.67 0 12.098 5.427 12.098 12.098 0 6.47-10.984 18.187-11.452 18.683a.891.891 0 01-.646.277zm0-29.284c-5.692 0-10.323 4.631-10.323 10.323 0 4.479 6.933 13.035 10.323 16.767 3.391-3.733 10.323-12.287 10.323-16.767.001-5.692-4.631-10.323-10.323-10.323z" fill="#010002"/><path d="M15.529 15.884a5.122 5.122 0 01-5.117-5.117 5.123 5.123 0 015.117-5.117 5.123 5.123 0 015.117 5.117 5.122 5.122 0 01-5.117 5.117zm0-8.459a3.346 3.346 0 00-3.343 3.342 3.346 3.346 0 003.343 3.343 3.346 3.346 0 003.342-3.343 3.346 3.346 0 00-3.342-3.342z" fill="#010002"/></svg>