<svg xmlns="http://www.w3.org/2000/svg" height="512pt" viewBox="-3 0 512 512.001" width="512pt"><path d="M156.297 185.387c2.629 0 5.21-1.07 7.07-2.938 1.86-1.86 2.93-4.43 2.93-7.07 0-2.633-1.07-5.211-2.93-7.07-1.86-1.86-4.441-2.93-7.07-2.93s-5.211 1.07-7.07 2.93a10.073 10.073 0 00-2.93 7.07c0 2.64 1.07 5.21 2.93 7.07a10.047 10.047 0 007.07 2.938zM280.941 50.21a10.027 10.027 0 007.07 2.935c2.63 0 5.212-1.063 7.071-2.934a10.07 10.07 0 002.93-7.066c0-2.633-1.07-5.211-2.93-7.07a10.067 10.067 0 00-7.07-2.934 10.06 10.06 0 00-7.07 2.933 10.023 10.023 0 00-2.93 7.07 10.02 10.02 0 002.93 7.067zM173.152 323.215h-33.8c-5.524 0-10 4.48-10 10.004 0 5.52 4.476 10 10 10h33.8c5.524 0 10-4.48 10-10 0-5.524-4.476-10.004-10-10.004zm-69.488.008c-2.64 0-5.219 1.062-7.082 2.922a10.075 10.075 0 00-2.918 7.07c0 2.637 1.059 5.207 2.918 7.07a10.06 10.06 0 007.082 2.93c2.629 0 5.211-1.063 7.07-2.93a10.073 10.073 0 002.93-7.07c0-2.633-1.07-5.203-2.93-7.07a10.072 10.072 0 00-7.07-2.922zm105.176 0a10.032 10.032 0 00-7.063 2.922 10.04 10.04 0 00-2.93 7.07 10.04 10.04 0 002.93 7.07 10.007 10.007 0 007.063 2.93c2.64 0 5.219-1.063 7.078-2.93a10.073 10.073 0 002.93-7.07c0-2.633-1.07-5.203-2.93-7.07a10.07 10.07 0 00-7.078-2.922zm174.336-185.059c2.629 0 5.207-1.07 7.07-2.93a10.073 10.073 0 002.93-7.07c0-2.629-1.07-5.21-2.93-7.07a10.087 10.087 0 00-7.07-2.93c-2.64 0-5.211 1.07-7.082 2.93a10.068 10.068 0 00-2.918 7.07c0 2.633 1.058 5.211 2.918 7.07a10.107 10.107 0 007.082 2.93zm0 0" fill="#03416e"/><path d="M503.742 324.785c-6.191-14.078-19.594-22.824-34.972-22.824a38.229 38.229 0 00-28.684 12.965l-38.535 43.777c-29.367 33.36-69.375 55.031-112.715 61.73a43.532 43.532 0 005.727-21.624c0-23.063-17.899-42.008-40.532-43.707v-42.47c0-12.46-7.886-23.109-18.926-27.23l-24.07-104.039 87.317-87.316 55.543 55.539v34.785L315.93 222.52a10.002 10.002 0 00-1.72 11.796l18.888 35.051a9.988 9.988 0 008.812 5.258 9.953 9.953 0 004.735-1.195c4.863-2.621 6.68-8.688 4.062-13.547l-15.363-28.516 32.785-32.945h30.309l32.785 32.945-15.364 28.516c-2.617 4.86-.8 10.926 4.063 13.547a9.953 9.953 0 004.734 1.195 9.992 9.992 0 008.813-5.258l18.883-35.05a9.996 9.996 0 00-1.715-11.797l-37.965-38.149v-35.41c0-.102-.012-.2-.016-.3 4.188-5.981 6.45-13.079 6.45-20.528 0-9.59-3.735-18.606-10.516-25.383l-90.05-90.055a.047.047 0 01-.02-.02c-.008-.007-.016-.01-.024-.019l-.02-.02c-.003-.007-.011-.011-.019-.019C310.289 4.48 299.445 0 287.914 0c-11.562 0-22.43 4.504-30.601 12.676L147.05 122.937c-.07.067-.125.141-.192.211-24.375 4.395-43.007 25.473-43.617 50.95L77.5 285.359c-11.098 4.098-19.027 14.774-19.027 27.274v64.508a170.13 170.13 0 00-43.196 34.863L2.531 426.316c-3.672 4.125-3.304 10.446.82 14.118a9.952 9.952 0 006.645 2.53c2.758 0 5.5-1.128 7.473-3.347l12.746-14.316a150.122 150.122 0 0139.164-31.352 9.97 9.97 0 006.762-3.539c20.422-10.043 43.078-15.45 66.304-15.45H250.72c13.148 0 23.844 10.7 23.847 23.849 0 13.148-10.699 23.843-23.847 23.843l-67.043.004c-5.524 0-10 4.477-10 10s4.476 10 10 10h76.387a208.556 208.556 0 00156.503-70.738l38.536-43.777a18.218 18.218 0 0113.668-6.18c7.44 0 13.671 4.066 16.668 10.879 2.996 6.808 1.78 14.148-3.247 19.633l-71.851 78.394C374.73 469.72 324.082 492 271.383 492H10c-5.523 0-10 4.477-10 10s4.477 10 10 10h261.383c58.289 0 114.312-24.645 153.699-67.617l71.855-78.395c10.391-11.336 13-27.125 6.805-41.203zM257.488 73.668a42.879 42.879 0 0021.332 11.625l-72.453 72.453c-5.422-15.348-17.71-27.473-33.16-32.68l72.668-72.668a42.887 42.887 0 0011.613 21.27zm135.184 104.754h-18.774v-15.613c3 .796 6.122 1.222 9.309 1.222 3.242 0 6.418-.437 9.465-1.265zm6.43-50.29a15.78 15.78 0 01-4.657 11.24 15.777 15.777 0 01-11.238 4.655 15.793 15.793 0 01-11.242-4.656l-59.469-59.469 6.02-6.02c5.925-5.925 9.91-13.269 11.66-21.26l64.27 64.269a15.793 15.793 0 014.656 11.242zM304.375 26.82a23.13 23.13 0 016.816 16.461c0 5.762-2.101 11.192-5.91 15.457-.308.242-.61.5-.894.785-9.032 9.032-23.727 9.032-32.758 0s-9.031-23.726 0-32.757c.191-.192.367-.391.539-.594C276.473 22.199 282.02 20 287.914 20c6.219 0 12.063 2.422 16.461 6.82zM156.297 142.29c18.246 0 33.09 14.847 33.09 33.089 0 18.246-14.844 33.09-33.09 33.09-18.242 0-33.086-14.844-33.086-33.09 0-18.242 14.844-33.09 33.086-33.09zm-40.7 67.132c9.747 11.633 24.372 19.05 40.7 19.05 16.332 0 30.957-7.417 40.703-19.05l17.156 74.152H98.441zM78.474 367.469v-54.836c0-4.992 4.062-9.059 9.058-9.059h137.442c4.996 0 9.058 4.063 9.058 9.059v42.328H142.45c-22.16 0-43.86 4.348-63.976 12.508zm0 0" fill="#03416e"/><path d="M154.355 439.727a10.093 10.093 0 002.93-7.07c0-2.641-1.07-5.208-2.93-7.079-1.87-1.86-4.44-2.922-7.07-2.922s-5.21 1.063-7.082 2.922a10.087 10.087 0 00-2.918 7.078c0 2.633 1.059 5.2 2.918 7.07 1.871 1.86 4.453 2.934 7.082 2.934s5.203-1.074 7.07-2.933zm0 0" fill="#03416e"/></svg>