<?xml version="1.0" encoding="utf-8"?>
<!-- Generator: Adobe Illustrator 16.0.0, SVG Export Plug-In . SVG Version: 6.00 Build 0)  -->
<!DOCTYPE svg PUBLIC "-//W3C//DTD SVG 1.1//EN" "http://www.w3.org/Graphics/SVG/1.1/DTD/svg11.dtd">
<svg version="1.1" id="Layer_1" xmlns="http://www.w3.org/2000/svg" xmlns:xlink="http://www.w3.org/1999/xlink" x="0px" y="0px"
	 width="16px" height="16px" viewBox="8 8 16 16" enable-background="new 8 8 16 16" xml:space="preserve">
<g>
	<g>
		<path fill="#04416F" d="M24,14.112c-0.206-0.874-0.549-1.694-1.009-2.435c-0.744,0.377-1.678,0.256-2.301-0.367
			c-0.623-0.624-0.745-1.556-0.368-2.302C19.582,8.549,18.761,8.206,17.888,8C17.627,8.794,16.881,9.367,16,9.367
			S14.374,8.794,14.113,8c-0.874,0.206-1.693,0.549-2.435,1.009c0.377,0.745,0.255,1.678-0.368,2.302
			c-0.624,0.623-1.556,0.744-2.302,0.367C8.549,12.419,8.206,13.239,8,14.112c0.793,0.26,1.367,1.007,1.367,1.888
			S8.794,17.627,8,17.887c0.206,0.874,0.549,1.694,1.009,2.435c0.746-0.377,1.678-0.255,2.301,0.368s0.745,1.557,0.368,2.303
			c0.741,0.458,1.561,0.802,2.435,1.008c0.261-0.794,1.007-1.368,1.887-1.368c0.881,0,1.626,0.574,1.887,1.368
			c0.873-0.206,1.694-0.55,2.436-1.008c-0.378-0.746-0.256-1.68,0.367-2.303s1.557-0.745,2.302-0.368
			c0.46-0.74,0.803-1.561,1.008-2.435c-0.793-0.26-1.367-1.006-1.367-1.887C22.633,15.119,23.207,14.373,24,14.112z"/>
		
			<linearGradient id="SVGID_1_" gradientUnits="userSpaceOnUse" x1="306.6084" y1="-365.0347" x2="301.4653" y2="-356.1266" gradientTransform="matrix(1 0 0 -1 -290 -347)">
			<stop  offset="0" style="stop-color:#2484C6"/>
			<stop  offset="0.7043" style="stop-color:#2484C6;stop-opacity:0"/>
		</linearGradient>
		<path fill="url(#SVGID_1_)" d="M20.69,11.311c-0.623-0.624-0.745-1.556-0.368-2.302C19.582,8.549,18.761,8.206,17.888,8
			C17.627,8.794,16.881,9.367,16,9.367S14.374,8.794,14.113,8c-0.874,0.206-1.693,0.549-2.435,1.009
			c0.377,0.745,0.255,1.678-0.368,2.302c-0.624,0.623-1.556,0.744-2.302,0.367C8.549,12.419,8.206,13.239,8,14.112
			c0.793,0.26,1.367,1.007,1.367,1.888S8.794,17.627,8,17.887c0.206,0.874,0.549,1.694,1.009,2.435
			c0.746-0.377,1.678-0.255,2.301,0.368c0.085,0.086,0.161,0.178,0.227,0.273l9.426-9.426C20.867,11.471,20.775,11.396,20.69,11.311
			z"/>
	</g>
	
		<linearGradient id="SVGID_2_" gradientUnits="userSpaceOnUse" x1="301.541" y1="-365.5742" x2="310.4592" y2="-360.4253" gradientTransform="matrix(1 0 0 -1 -290 -347)">
		<stop  offset="0" style="stop-color:#FFFFFF"/>
		<stop  offset="0.2634" style="stop-color:#666666"/>
		<stop  offset="0.6559" style="stop-color:#FFFFFF"/>
		<stop  offset="1" style="stop-color:#666666"/>
	</linearGradient>
	<circle fill="url(#SVGID_2_)" cx="16" cy="16" r="5.148"/>
	<circle fill="#FFFFFF" cx="16" cy="16" r="3.331"/>
	<path fill="#04416F" d="M18.425,14.903l-0.824,1.509l-1.056,0.283l-0.772-0.771l0.282-1.055l1.51-0.825
		c-0.747-0.371-1.696-0.23-2.34,0.412c-0.589,0.588-0.756,1.434-0.495,2.146l-2.484,2.484l1.137,1.136l2.483-2.484
		c0.713,0.26,1.558,0.093,2.146-0.495C18.655,16.6,18.796,15.651,18.425,14.903z"/>
	
		<linearGradient id="SVGID_3_" gradientUnits="userSpaceOnUse" x1="304.9063" y1="-366.6694" x2="304.9063" y2="-360.8423" gradientTransform="matrix(1 0 0 -1 -290 -347)">
		<stop  offset="0" style="stop-color:#2484C6"/>
		<stop  offset="1" style="stop-color:#2484C6;stop-opacity:0"/>
	</linearGradient>
	<path fill="url(#SVGID_3_)" d="M15.773,15.924l0.282-1.055l1.51-0.825c-0.747-0.371-1.696-0.23-2.34,0.412
		c-0.589,0.588-0.756,1.434-0.495,2.146l-2.484,2.484l0.584,0.583l3.345-3.345L15.773,15.924z"/>
	
		<linearGradient id="SVGID_4_" gradientUnits="userSpaceOnUse" x1="301.541" y1="-365.5742" x2="310.4592" y2="-360.4253" gradientTransform="matrix(1 0 0 -1 -290 -347)">
		<stop  offset="0" style="stop-color:#FFFFFF"/>
		<stop  offset="0.2634" style="stop-color:#666666"/>
		<stop  offset="0.6559" style="stop-color:#FFFFFF"/>
		<stop  offset="1" style="stop-color:#666666"/>
	</linearGradient>
	<path fill="url(#SVGID_4_)" d="M16,10.852c-2.843,0-5.148,2.305-5.148,5.148c0,2.843,2.305,5.148,5.148,5.148
		s5.148-2.306,5.148-5.148C21.148,13.157,18.843,10.852,16,10.852z M16,19.331c-1.839,0-3.331-1.491-3.331-3.331
		c0-1.839,1.491-3.331,3.331-3.331c1.839,0,3.331,1.491,3.331,3.331C19.331,17.84,17.839,19.331,16,19.331z"/>
</g>
</svg>
